<svg width="286" height="182" viewBox="0 0 286 182" fill="none" xmlns="http://www.w3.org/2000/svg">
<g filter="url(#filter0_i_0_1)">
<rect width="286" height="182" rx="11" fill="#FDFDFD"/>
</g>
<g filter="url(#filter1_d_0_1)">
<path d="M55.2308 90.5C114.077 34.1 172.923 34.1 231.769 90.5M55.2308 90.5C114.077 146.9 172.923 146.9 231.769 90.5M55.2308 90.5L35.6154 76.4C107.538 20 176.192 20 241.577 76.4L271 104.6M231.769 90.5L251.385 104.6C179.462 161 110.808 161 45.4231 104.6L16 76.4M16 76.4V104.6C101 179.8 186 179.8 271 104.6M16 76.4C101 1.2 186 1.2 271 76.4V104.6" stroke="#5C8984" stroke-width="9" stroke-linecap="round" stroke-linejoin="round" shape-rendering="crispEdges"/>
</g>
<g filter="url(#filter2_d_0_1)">
<path d="M136.759 70.776C136.332 70.776 135.863 70.6907 135.351 70.52C134.839 70.3493 134.583 69.9653 134.583 69.368C134.583 68.9413 134.711 68.5573 134.967 68.216C135.65 66.936 136.887 65.8267 138.679 64.888C140.556 63.9493 141.964 63.48 142.903 63.48C143.33 63.48 143.799 63.608 144.311 63.864C144.823 64.0347 145.079 64.4187 145.079 65.016C145.079 66.4667 144.183 67.7893 142.391 68.984C140.684 70.1787 138.807 70.776 136.759 70.776ZM122.423 123.128C119.522 123.128 117.218 122.317 115.511 120.696C113.804 119.075 112.951 116.813 112.951 113.912C112.951 112.205 113.122 110.541 113.463 108.92C113.804 107.213 114.274 105.549 114.871 103.928C115.212 102.989 115.895 101.453 116.919 99.32C118.028 97.1013 119.308 94.7973 120.759 92.408C122.21 89.9333 123.618 87.8427 124.983 86.136C126.348 84.4293 127.543 83.576 128.567 83.576C128.994 83.576 129.548 83.7467 130.231 84.088C130.999 84.344 131.383 84.7707 131.383 85.368C131.383 85.7093 131.212 86.136 130.871 86.648C128.908 88.8667 126.86 91.512 124.727 94.584C122.594 97.656 120.802 100.856 119.351 104.184C117.9 107.512 117.175 110.712 117.175 113.784C117.175 117.709 119.052 119.672 122.807 119.672C125.367 119.672 127.927 118.435 130.487 115.96C133.132 113.485 136.034 110.157 139.191 105.976C140.13 104.781 140.94 103.629 141.623 102.52C142.391 101.325 143.074 100.301 143.671 99.448C144.268 98.8507 144.908 98.552 145.591 98.552C146.615 98.552 147.127 98.936 147.127 99.704C147.127 100.643 146.444 102.136 145.079 104.184C143.714 106.232 142.178 108.365 140.471 110.584C137.143 114.68 134.242 117.795 131.767 119.928C129.292 122.061 126.178 123.128 122.423 123.128ZM164.024 70.776C163.597 70.776 163.128 70.6907 162.616 70.52C162.104 70.3493 161.848 69.9653 161.848 69.368C161.848 68.9413 161.976 68.5573 162.232 68.216C162.915 66.936 164.152 65.8267 165.944 64.888C167.821 63.9493 169.229 63.48 170.168 63.48C170.595 63.48 171.064 63.608 171.576 63.864C172.088 64.0347 172.344 64.4187 172.344 65.016C172.344 66.4667 171.448 67.7893 169.656 68.984C167.949 70.1787 166.072 70.776 164.024 70.776ZM149.688 123.128C146.787 123.128 144.483 122.317 142.776 120.696C141.069 119.075 140.216 116.813 140.216 113.912C140.216 112.205 140.387 110.541 140.728 108.92C141.069 107.213 141.539 105.549 142.136 103.928C142.477 102.989 143.16 101.453 144.184 99.32C145.293 97.1013 146.573 94.7973 148.024 92.408C149.475 89.9333 150.883 87.8427 152.248 86.136C153.613 84.4293 154.808 83.576 155.832 83.576C156.259 83.576 156.813 83.7467 157.496 84.088C158.264 84.344 158.648 84.7707 158.648 85.368C158.648 85.7093 158.477 86.136 158.136 86.648C156.173 88.8667 154.125 91.512 151.992 94.584C149.859 97.656 148.067 100.856 146.616 104.184C145.165 107.512 144.44 110.712 144.44 113.784C144.44 117.709 146.317 119.672 150.072 119.672C152.632 119.672 155.192 118.435 157.752 115.96C160.397 113.485 163.299 110.157 166.456 105.976C167.395 104.781 168.205 103.629 168.888 102.52C169.656 101.325 170.339 100.301 170.936 99.448C171.533 98.8507 172.173 98.552 172.856 98.552C173.88 98.552 174.392 98.936 174.392 99.704C174.392 100.643 173.709 102.136 172.344 104.184C170.979 106.232 169.443 108.365 167.736 110.584C164.408 114.68 161.507 117.795 159.032 119.928C156.557 122.061 153.443 123.128 149.688 123.128Z" fill="#BE5A83"/>
</g>
<defs>
<filter id="filter0_i_0_1" x="-1" y="0" width="287" height="182" filterUnits="userSpaceOnUse" color-interpolation-filters="sRGB">
<feFlood flood-opacity="0" result="BackgroundImageFix"/>
<feBlend mode="normal" in="SourceGraphic" in2="BackgroundImageFix" result="shape"/>
<feColorMatrix in="SourceAlpha" type="matrix" values="0 0 0 0 0 0 0 0 0 0 0 0 0 0 0 0 0 0 127 0" result="hardAlpha"/>
<feOffset dx="-1"/>
<feGaussianBlur stdDeviation="6.5"/>
<feComposite in2="hardAlpha" operator="arithmetic" k2="-1" k3="1"/>
<feColorMatrix type="matrix" values="0 0 0 0 0 0 0 0 0 0 0 0 0 0 0 0 0 0 0.4 0"/>
<feBlend mode="normal" in2="shape" result="effect1_innerShadow_0_1"/>
</filter>
<filter id="filter1_d_0_1" x="7.5" y="15.5" width="272" height="158" filterUnits="userSpaceOnUse" color-interpolation-filters="sRGB">
<feFlood flood-opacity="0" result="BackgroundImageFix"/>
<feColorMatrix in="SourceAlpha" type="matrix" values="0 0 0 0 0 0 0 0 0 0 0 0 0 0 0 0 0 0 127 0" result="hardAlpha"/>
<feOffset dy="4"/>
<feGaussianBlur stdDeviation="2"/>
<feComposite in2="hardAlpha" operator="out"/>
<feColorMatrix type="matrix" values="0 0 0 0 0 0 0 0 0 0 0 0 0 0 0 0 0 0 0.4 0"/>
<feBlend mode="normal" in2="BackgroundImageFix" result="effect1_dropShadow_0_1"/>
<feBlend mode="normal" in="SourceGraphic" in2="effect1_dropShadow_0_1" result="shape"/>
</filter>
<filter id="filter2_d_0_1" x="108.951" y="63.48" width="69.441" height="67.648" filterUnits="userSpaceOnUse" color-interpolation-filters="sRGB">
<feFlood flood-opacity="0" result="BackgroundImageFix"/>
<feColorMatrix in="SourceAlpha" type="matrix" values="0 0 0 0 0 0 0 0 0 0 0 0 0 0 0 0 0 0 127 0" result="hardAlpha"/>
<feOffset dy="4"/>
<feGaussianBlur stdDeviation="2"/>
<feComposite in2="hardAlpha" operator="out"/>
<feColorMatrix type="matrix" values="0 0 0 0 0 0 0 0 0 0 0 0 0 0 0 0 0 0 0.25 0"/>
<feBlend mode="normal" in2="BackgroundImageFix" result="effect1_dropShadow_0_1"/>
<feBlend mode="normal" in="SourceGraphic" in2="effect1_dropShadow_0_1" result="shape"/>
</filter>
</defs>
</svg>
