<svg width="265" height="151" viewBox="0 0 265 151" fill="none" xmlns="http://www.w3.org/2000/svg">
<path d="M44.2308 75.5C103.077 19.1 161.923 19.1 220.769 75.5M44.2308 75.5C103.077 131.9 161.923 131.9 220.769 75.5M44.2308 75.5L24.6154 61.4C96.5385 5 165.192 5 230.577 61.4L260 89.6M220.769 75.5L240.385 89.6C168.462 146 99.8077 146 34.4231 89.6L5 61.4M5 61.4V89.6C90 164.8 175 164.8 260 89.6M5 61.4C90 -13.8 175 -13.8 260 61.4V89.6" stroke="#5C8984" stroke-width="9" stroke-linecap="round" stroke-linejoin="round"/>
<path d="M125.759 55.776C125.332 55.776 124.863 55.6907 124.351 55.52C123.839 55.3493 123.583 54.9653 123.583 54.368C123.583 53.9413 123.711 53.5573 123.967 53.216C124.65 51.936 125.887 50.8267 127.679 49.888C129.556 48.9493 130.964 48.48 131.903 48.48C132.33 48.48 132.799 48.608 133.311 48.864C133.823 49.0347 134.079 49.4187 134.079 50.016C134.079 51.4667 133.183 52.7893 131.391 53.984C129.684 55.1787 127.807 55.776 125.759 55.776ZM111.423 108.128C108.522 108.128 106.218 107.317 104.511 105.696C102.804 104.075 101.951 101.813 101.951 98.912C101.951 97.2053 102.122 95.5413 102.463 93.92C102.804 92.2133 103.274 90.5493 103.871 88.928C104.212 87.9893 104.895 86.4533 105.919 84.32C107.028 82.1013 108.308 79.7973 109.759 77.408C111.21 74.9333 112.618 72.8427 113.983 71.136C115.348 69.4293 116.543 68.576 117.567 68.576C117.994 68.576 118.548 68.7467 119.231 69.088C119.999 69.344 120.383 69.7707 120.383 70.368C120.383 70.7093 120.212 71.136 119.871 71.648C117.908 73.8667 115.86 76.512 113.727 79.584C111.594 82.656 109.802 85.856 108.351 89.184C106.9 92.512 106.175 95.712 106.175 98.784C106.175 102.709 108.052 104.672 111.807 104.672C114.367 104.672 116.927 103.435 119.487 100.96C122.132 98.4853 125.034 95.1573 128.191 90.976C129.13 89.7813 129.94 88.6293 130.623 87.52C131.391 86.3253 132.074 85.3013 132.671 84.448C133.268 83.8507 133.908 83.552 134.591 83.552C135.615 83.552 136.127 83.936 136.127 84.704C136.127 85.6427 135.444 87.136 134.079 89.184C132.714 91.232 131.178 93.3653 129.471 95.584C126.143 99.68 123.242 102.795 120.767 104.928C118.292 107.061 115.178 108.128 111.423 108.128ZM153.024 55.776C152.597 55.776 152.128 55.6907 151.616 55.52C151.104 55.3493 150.848 54.9653 150.848 54.368C150.848 53.9413 150.976 53.5573 151.232 53.216C151.915 51.936 153.152 50.8267 154.944 49.888C156.821 48.9493 158.229 48.48 159.168 48.48C159.595 48.48 160.064 48.608 160.576 48.864C161.088 49.0347 161.344 49.4187 161.344 50.016C161.344 51.4667 160.448 52.7893 158.656 53.984C156.949 55.1787 155.072 55.776 153.024 55.776ZM138.688 108.128C135.787 108.128 133.483 107.317 131.776 105.696C130.069 104.075 129.216 101.813 129.216 98.912C129.216 97.2053 129.387 95.5413 129.728 93.92C130.069 92.2133 130.539 90.5493 131.136 88.928C131.477 87.9893 132.16 86.4533 133.184 84.32C134.293 82.1013 135.573 79.7973 137.024 77.408C138.475 74.9333 139.883 72.8427 141.248 71.136C142.613 69.4293 143.808 68.576 144.832 68.576C145.259 68.576 145.813 68.7467 146.496 69.088C147.264 69.344 147.648 69.7707 147.648 70.368C147.648 70.7093 147.477 71.136 147.136 71.648C145.173 73.8667 143.125 76.512 140.992 79.584C138.859 82.656 137.067 85.856 135.616 89.184C134.165 92.512 133.44 95.712 133.44 98.784C133.44 102.709 135.317 104.672 139.072 104.672C141.632 104.672 144.192 103.435 146.752 100.96C149.397 98.4853 152.299 95.1573 155.456 90.976C156.395 89.7813 157.205 88.6293 157.888 87.52C158.656 86.3253 159.339 85.3013 159.936 84.448C160.533 83.8507 161.173 83.552 161.856 83.552C162.88 83.552 163.392 83.936 163.392 84.704C163.392 85.6427 162.709 87.136 161.344 89.184C159.979 91.232 158.443 93.3653 156.736 95.584C153.408 99.68 150.507 102.795 148.032 104.928C145.557 107.061 142.443 108.128 138.688 108.128Z" fill="#BE5A83"/>
</svg>
